<?xml version="1.0" encoding="UTF-8"?>
<!DOCTYPE svg PUBLIC "-//W3C//DTD SVG 1.1//EN" "http://www.w3.org/Graphics/SVG/1.1/DTD/svg11.dtd">
<svg xmlns="http://www.w3.org/2000/svg" version="1.1" width="50px" height="50px" style="shape-rendering:geometricPrecision; text-rendering:geometricPrecision; image-rendering:optimizeQuality; fill-rule:evenodd; clip-rule:evenodd" xmlns:xlink="http://www.w3.org/1999/xlink">
<g><path style="opacity:0.671" fill="#000000" d="M 42.5,1.5 C 43.8333,1.5 45.1667,1.5 46.5,1.5C 44.0322,6.83036 40.8655,11.8304 37,16.5C 36.5172,17.448 36.3505,18.448 36.5,19.5C 32.4385,18.5573 28.6051,16.8906 25,14.5C 21.9964,16.6744 19.1631,19.0077 16.5,21.5C 11.9048,23.5857 7.23816,25.2523 2.5,26.5C 2.5,25.1667 2.5,23.8333 2.5,22.5C 10.9716,20.5973 18.305,16.5973 24.5,10.5C 27.709,12.0218 30.8756,13.6885 34,15.5C 37.5262,11.1656 40.3596,6.49895 42.5,1.5 Z"/></g>
<g><path style="opacity:1" fill="#000000" d="M 48.5,49.5 C 45.8333,49.5 43.1667,49.5 40.5,49.5C 40.5,37.8333 40.5,26.1667 40.5,14.5C 43.1667,14.5 45.8333,14.5 48.5,14.5C 48.5,26.1667 48.5,37.8333 48.5,49.5 Z M 42.5,16.5 C 43.8333,16.5 45.1667,16.5 46.5,16.5C 46.5,26.8333 46.5,37.1667 46.5,47.5C 45.1667,47.5 43.8333,47.5 42.5,47.5C 42.5,37.1667 42.5,26.8333 42.5,16.5 Z"/></g>
<g><path style="opacity:1" fill="#000000" d="M 28.5,49.5 C 25.8333,49.5 23.1667,49.5 20.5,49.5C 20.5,40.8333 20.5,32.1667 20.5,23.5C 23.1667,23.5 25.8333,23.5 28.5,23.5C 28.5,32.1667 28.5,40.8333 28.5,49.5 Z M 22.5,25.5 C 23.8333,25.5 25.1667,25.5 26.5,25.5C 26.5,32.8333 26.5,40.1667 26.5,47.5C 25.1667,47.5 23.8333,47.5 22.5,47.5C 22.5,40.1667 22.5,32.8333 22.5,25.5 Z"/></g>
<g><path style="opacity:1" fill="#000000" d="M 38.5,49.5 C 35.8333,49.5 33.1667,49.5 30.5,49.5C 30.5,42.5 30.5,35.5 30.5,28.5C 33.1667,28.5 35.8333,28.5 38.5,28.5C 38.5,35.5 38.5,42.5 38.5,49.5 Z M 32.5,30.5 C 33.8333,30.5 35.1667,30.5 36.5,30.5C 36.5,36.1667 36.5,41.8333 36.5,47.5C 35.1667,47.5 33.8333,47.5 32.5,47.5C 32.5,41.8333 32.5,36.1667 32.5,30.5 Z"/></g>
<g><path style="opacity:1" fill="#000000" d="M 18.5,49.5 C 15.8333,49.5 13.1667,49.5 10.5,49.5C 10.5,43.5 10.5,37.5 10.5,31.5C 13.1667,31.5 15.8333,31.5 18.5,31.5C 18.5,37.5 18.5,43.5 18.5,49.5 Z M 12.5,33.5 C 13.8333,33.5 15.1667,33.5 16.5,33.5C 16.5,38.1667 16.5,42.8333 16.5,47.5C 15.1667,47.5 13.8333,47.5 12.5,47.5C 12.5,42.8333 12.5,38.1667 12.5,33.5 Z"/></g>
<g><path style="opacity:1" fill="#000000" d="M 8.5,49.5 C 5.83333,49.5 3.16667,49.5 0.5,49.5C 0.5,44.8333 0.5,40.1667 0.5,35.5C 3.16667,35.5 5.83333,35.5 8.5,35.5C 8.5,40.1667 8.5,44.8333 8.5,49.5 Z M 2.5,37.5 C 3.83333,37.5 5.16667,37.5 6.5,37.5C 6.5,40.8333 6.5,44.1667 6.5,47.5C 5.16667,47.5 3.83333,47.5 2.5,47.5C 2.5,44.1667 2.5,40.8333 2.5,37.5 Z"/></g>
</svg>
