<?xml version="1.0" encoding="UTF-8"?>
<!DOCTYPE svg PUBLIC "-//W3C//DTD SVG 1.1//EN" "http://www.w3.org/Graphics/SVG/1.1/DTD/svg11.dtd">
<svg xmlns="http://www.w3.org/2000/svg" version="1.1" width="50px" height="50px" style="shape-rendering:geometricPrecision; text-rendering:geometricPrecision; image-rendering:optimizeQuality; fill-rule:evenodd; clip-rule:evenodd" xmlns:xlink="http://www.w3.org/1999/xlink">
<g><path style="opacity:0.653" fill="#000000" d="M 49.5,26.5 C 49.5,29.1667 49.5,31.8333 49.5,34.5C 42.4942,41.0072 34.1609,43.6739 24.5,42.5C 14.8391,43.6739 6.50579,41.0072 -0.5,34.5C -0.5,31.8333 -0.5,29.1667 -0.5,26.5C 1.04931,22.7093 2.71598,18.876 4.5,15C 8.92105,13.7543 12.9211,11.7543 16.5,9C 17.7839,8.31621 18.9505,8.48288 20,9.5C 21.2991,8.02026 22.9658,7.3536 25,7.5C 27.5472,7.76177 30.0472,8.26177 32.5,9C 36.0789,11.7543 40.0789,13.7543 44.5,15C 46.284,18.876 47.9507,22.7093 49.5,26.5 Z M 23.5,10.5 C 25.8273,10.2471 27.8273,10.9137 29.5,12.5C 30.086,12.2907 30.586,11.9574 31,11.5C 33.8604,14.3604 36.6937,17.1937 39.5,20C 29.9842,23.9126 20.3176,24.2459 10.5,21C 9.72028,19.927 9.88695,18.7604 11,17.5C 13.3079,16.3589 15.1413,14.6922 16.5,12.5C 18.3435,12.2448 20.3435,12.0781 22.5,12C 23.056,11.6174 23.3893,11.1174 23.5,10.5 Z M 4.5,22.5 C 17.5004,26.4697 30.5004,26.4697 43.5,22.5C 47.7588,27.4902 47.4254,31.9902 42.5,36C 39.9109,37.1965 37.2442,38.1965 34.5,39C 27.8333,39.6667 21.1667,39.6667 14.5,39C 10.2807,38.2087 6.61407,36.3754 3.5,33.5C 2.38088,29.7418 2.71421,26.0751 4.5,22.5 Z"/></g>
<g><path style="opacity:0.645" fill="#000000" d="M 17.5,15.5 C 20.3158,15.5442 22.6492,16.5442 24.5,18.5C 22.5787,19.641 20.5787,19.8077 18.5,19C 17.6634,17.9887 17.33,16.8221 17.5,15.5 Z"/></g>
<g><path style="opacity:0.709" fill="#000000" d="M 30.5,16.5 C 32.1765,17.1834 32.8432,18.5168 32.5,20.5C 28.1547,20.7019 27.488,19.3686 30.5,16.5 Z"/></g>
<g><path style="opacity:0.86" fill="#000000" d="M 18.5,29.5 C 20.7743,29.7151 22.941,30.3818 25,31.5C 27.059,30.3818 29.2257,29.7151 31.5,29.5C 31.5,31.8333 31.5,34.1667 31.5,36.5C 30.1667,36.5 28.8333,36.5 27.5,36.5C 27.5,35.5 27.5,34.5 27.5,33.5C 25.8333,33.5 24.1667,33.5 22.5,33.5C 22.5,34.5 22.5,35.5 22.5,36.5C 21.1667,36.5 19.8333,36.5 18.5,36.5C 18.5,34.1667 18.5,31.8333 18.5,29.5 Z"/></g>
</svg>
