<?xml version="1.0" encoding="UTF-8"?>
<!DOCTYPE svg PUBLIC "-//W3C//DTD SVG 1.1//EN" "http://www.w3.org/Graphics/SVG/1.1/DTD/svg11.dtd">
<svg xmlns="http://www.w3.org/2000/svg" version="1.1" width="50px" height="50px" style="shape-rendering:geometricPrecision; text-rendering:geometricPrecision; image-rendering:optimizeQuality; fill-rule:evenodd; clip-rule:evenodd" xmlns:xlink="http://www.w3.org/1999/xlink">
<g><path style="opacity:0.953" fill="#000000" d="M -0.5,-0.5 C 12.8333,-0.5 26.1667,-0.5 39.5,-0.5C 39.6653,3.18174 39.4986,6.84841 39,10.5C 37.8926,7.7748 37.0592,4.94147 36.5,2C 25.1667,1.33333 13.8333,1.33333 2.5,2C 1.8413,9.4237 1.50797,16.9237 1.5,24.5C 1.50797,32.0763 1.8413,39.5763 2.5,47C 13.8333,47.6667 25.1667,47.6667 36.5,47C 37.0592,44.0585 37.8926,41.2252 39,38.5C 39.4986,42.1516 39.6653,45.8183 39.5,49.5C 26.1667,49.5 12.8333,49.5 -0.5,49.5C -0.5,32.8333 -0.5,16.1667 -0.5,-0.5 Z"/></g>
<g><path style="opacity:0.729" fill="#000000" d="M 49.5,22.5 C 49.5,23.8333 49.5,25.1667 49.5,26.5C 46.0359,29.4625 42.7025,32.6291 39.5,36C 38.552,36.4828 37.552,36.6495 36.5,36.5C 38.1195,32.3576 40.7862,28.8576 44.5,26C 4.5,25 4.5,24 44.5,23C 40.7862,20.1424 38.1195,16.6424 36.5,12.5C 37.552,12.3505 38.552,12.5172 39.5,13C 42.7025,16.3709 46.0359,19.5375 49.5,22.5 Z"/></g>
</svg>
