<?xml version="1.0" encoding="UTF-8"?>
<!DOCTYPE svg PUBLIC "-//W3C//DTD SVG 1.1//EN" "http://www.w3.org/Graphics/SVG/1.1/DTD/svg11.dtd">
<svg xmlns="http://www.w3.org/2000/svg" version="1.1" width="50px" height="50px" style="shape-rendering:geometricPrecision; text-rendering:geometricPrecision; image-rendering:optimizeQuality; fill-rule:evenodd; clip-rule:evenodd" xmlns:xlink="http://www.w3.org/1999/xlink">
<g><path style="opacity:0.983" fill="#000000" d="M -0.5,-0.5 C 12.8333,-0.5 26.1667,-0.5 39.5,-0.5C 39.5,3.5 39.5,7.5 39.5,11.5C 38.1667,11.5 36.8333,11.5 35.5,11.5C 35.2322,13.099 35.5655,14.4324 36.5,15.5C 36.5,16.1667 36.8333,16.5 37.5,16.5C 37.5,17.1667 37.8333,17.5 38.5,17.5C 38.5,18.1667 38.8333,18.5 39.5,18.5C 39.5,19.5 39.5,20.5 39.5,21.5C 31.8261,21.3336 24.1594,21.5003 16.5,22C 13.8333,23.6667 13.8333,25.3333 16.5,27C 24.1594,27.4997 31.8261,27.6664 39.5,27.5C 39.5,28.5 39.5,29.5 39.5,30.5C 38.8333,30.5 38.5,30.8333 38.5,31.5C 37.8333,31.5 37.5,31.8333 37.5,32.5C 36.8333,32.5 36.5,32.8333 36.5,33.5C 35.5655,34.5676 35.2322,35.901 35.5,37.5C 36.8333,37.5 38.1667,37.5 39.5,37.5C 39.5,41.5 39.5,45.5 39.5,49.5C 26.1667,49.5 12.8333,49.5 -0.5,49.5C -0.5,32.8333 -0.5,16.1667 -0.5,-0.5 Z"/></g>
<g><path style="opacity:0.732" fill="#000000" d="M 49.5,22.5 C 49.5,23.8333 49.5,25.1667 49.5,26.5C 46.0359,29.4625 42.7025,32.6291 39.5,36C 38.552,36.4828 37.552,36.6495 36.5,36.5C 36.5,35.5 36.5,34.5 36.5,33.5C 37.1667,33.5 37.5,33.1667 37.5,32.5C 38.1667,32.5 38.5,32.1667 38.5,31.5C 39.1667,31.5 39.5,31.1667 39.5,30.5C 41.2959,29.2073 42.9625,27.7073 44.5,26C 5.83333,25 5.83333,24 44.5,23C 42.9625,21.2927 41.2959,19.7927 39.5,18.5C 38.8333,18.5 38.5,18.1667 38.5,17.5C 37.8333,17.5 37.5,17.1667 37.5,16.5C 36.8333,16.5 36.5,16.1667 36.5,15.5C 36.5,14.5 36.5,13.5 36.5,12.5C 37.552,12.3505 38.552,12.5172 39.5,13C 42.7025,16.3709 46.0359,19.5375 49.5,22.5 Z"/></g>
</svg>
